<?xml version="1.0" encoding="UTF-8" standalone="no"?>
<!-- Created with Inkscape (http://www.inkscape.org/) -->

<svg
   xmlns:dc="http://purl.org/dc/elements/1.1/"
   xmlns:cc="http://creativecommons.org/ns#"
   xmlns:rdf="http://www.w3.org/1999/02/22-rdf-syntax-ns#"
   xmlns:svg="http://www.w3.org/2000/svg"
   xmlns="http://www.w3.org/2000/svg"
   xmlns:sodipodi="http://sodipodi.sourceforge.net/DTD/sodipodi-0.dtd"
   xmlns:inkscape="http://www.inkscape.org/namespaces/inkscape"
   width="210mm"
   height="297mm"
   viewBox="0 0 210 297"
   version="1.1"
   id="svg8"
   sodipodi:docname="LHC2.svg"
   inkscape:version="0.92.4 5da689c313, 2019-01-14"
   inkscape:export-filename="/home/christoph/Pictures/LHC2.png"
   inkscape:export-xdpi="96"
   inkscape:export-ydpi="96">
  <defs
     id="defs2">
    <marker
       inkscape:stockid="Arrow2Sstart"
       orient="auto"
       refY="0.0"
       refX="0.0"
       id="Arrow2Sstart"
       style="overflow:visible"
       inkscape:isstock="true">
      <path
         id="path4667"
         style="fill-rule:evenodd;stroke-width:0.625;stroke-linejoin:round;stroke:#5a5a5a;stroke-opacity:1;fill:#5a5a5a;fill-opacity:1"
         d="M 8.7185878,4.0337352 L -2.2072895,0.016013256 L 8.7185884,-4.0017078 C 6.9730900,-1.6296469 6.9831476,1.6157441 8.7185878,4.0337352 z "
         transform="scale(0.3) translate(-2.3,0)" />
    </marker>
    <marker
       inkscape:stockid="Arrow1Sstart"
       orient="auto"
       refY="0.0"
       refX="0.0"
       id="Arrow1Sstart"
       style="overflow:visible"
       inkscape:isstock="true">
      <path
         id="path4649"
         d="M 0.0,0.0 L 5.0,-5.0 L -12.5,0.0 L 5.0,5.0 L 0.0,0.0 z "
         style="fill-rule:evenodd;stroke:#000000;stroke-width:1pt;stroke-opacity:1;fill:#000000;fill-opacity:1"
         transform="scale(0.2) translate(6,0)" />
    </marker>
    <marker
       inkscape:stockid="Arrow2Mstart"
       orient="auto"
       refY="0.0"
       refX="0.0"
       id="Arrow2Mstart"
       style="overflow:visible"
       inkscape:isstock="true">
      <path
         id="path4661"
         style="fill-rule:evenodd;stroke-width:0.625;stroke-linejoin:round;stroke:#000000;stroke-opacity:1;fill:#000000;fill-opacity:1"
         d="M 8.7185878,4.0337352 L -2.2072895,0.016013256 L 8.7185884,-4.0017078 C 6.9730900,-1.6296469 6.9831476,1.6157441 8.7185878,4.0337352 z "
         transform="scale(0.6) translate(0,0)" />
    </marker>
    <marker
       inkscape:stockid="Arrow1Lstart"
       orient="auto"
       refY="0.0"
       refX="0.0"
       id="Arrow1Lstart"
       style="overflow:visible"
       inkscape:isstock="true">
      <path
         id="path4637"
         d="M 0.0,0.0 L 5.0,-5.0 L -12.5,0.0 L 5.0,5.0 L 0.0,0.0 z "
         style="fill-rule:evenodd;stroke:#000000;stroke-width:1pt;stroke-opacity:1;fill:#000000;fill-opacity:1"
         transform="scale(0.8) translate(12.5,0)" />
    </marker>
    <inkscape:path-effect
       effect="skeletal"
       id="path-effect2071"
       is_visible="true"
       pattern="m -52.97619,190.41072 a 7.5000093,2.5000517 0 0 1 -7.5,2.5 7.5000093,2.5000517 0 0 1 -7.5,-2.5 7.5000093,2.5000517 0 0 1 7.5,-2.5 7.5000093,2.5000517 0 0 1 7.5,2.5"
       copytype="repeated"
       prop_scale="1"
       scale_y_rel="false"
       spacing="15"
       normal_offset="0"
       tang_offset="-3"
       prop_units="false"
       vertical_pattern="false"
       fuse_tolerance="0" />
    <inkscape:path-effect
       effect="skeletal"
       id="path-effect2064"
       is_visible="true"
       pattern="m -52.97619,190.41072 a 7.5000093,2.5000517 0 0 1 -7.5,2.5 7.5000093,2.5000517 0 0 1 -7.5,-2.5 7.5000093,2.5000517 0 0 1 7.5,-2.5 7.5000093,2.5000517 0 0 1 7.5,2.5"
       copytype="repeated"
       prop_scale="1"
       scale_y_rel="false"
       spacing="15"
       normal_offset="0"
       tang_offset="2"
       prop_units="false"
       vertical_pattern="false"
       fuse_tolerance="0" />
    <inkscape:path-effect
       effect="skeletal"
       id="path-effect2004"
       is_visible="true"
       pattern="m -52.97619,190.41072 a 7.5000093,2.5000517 0 0 1 -7.5,2.5 7.5000093,2.5000517 0 0 1 -7.5,-2.5 7.5000093,2.5000517 0 0 1 7.5,-2.5 7.5000093,2.5000517 0 0 1 7.5,2.5"
       copytype="repeated"
       prop_scale="1"
       scale_y_rel="false"
       spacing="20"
       normal_offset="0"
       tang_offset="0"
       prop_units="false"
       vertical_pattern="false"
       fuse_tolerance="0" />
    <inkscape:path-effect
       effect="skeletal"
       id="path-effect1988"
       is_visible="true"
       pattern="m -94.01186,185.79773 a 7.5000092,2.5000517 0 0 1 -7.5,2.5 7.5000092,2.5000517 0 0 1 -7.5,-2.5 7.5000092,2.5000517 0 0 1 7.5,-2.5 7.5000092,2.5000517 0 0 1 7.5,2.5"
       copytype="repeated"
       prop_scale="1"
       scale_y_rel="false"
       spacing="20"
       normal_offset="0"
       tang_offset="0"
       prop_units="false"
       vertical_pattern="false"
       fuse_tolerance="0" />
    <marker
       inkscape:stockid="Arrow2Sstart"
       orient="auto"
       refY="0"
       refX="0"
       id="Arrow2Sstart-3"
       style="overflow:visible"
       inkscape:isstock="true">
      <path
         inkscape:connector-curvature="0"
         id="path4667-6"
         style="fill:#5a5a5a;fill-opacity:1;fill-rule:evenodd;stroke:#5a5a5a;stroke-width:0.625;stroke-linejoin:round;stroke-opacity:1"
         d="M 8.7185878,4.0337352 -2.2072895,0.01601326 8.7185884,-4.0017078 c -1.7454984,2.3720609 -1.7354408,5.6174519 -6e-7,8.035443 z"
         transform="matrix(0.3,0,0,0.3,-0.69,0)" />
    </marker>
  </defs>
  <sodipodi:namedview
     id="base"
     pagecolor="#ffffff"
     bordercolor="#666666"
     borderopacity="1.0"
     inkscape:pageopacity="0.0"
     inkscape:pageshadow="2"
     inkscape:zoom="0.35"
     inkscape:cx="-6628.6227"
     inkscape:cy="675.67972"
     inkscape:document-units="mm"
     inkscape:current-layer="g2844"
     showgrid="false"
     showborder="false"
     showguides="false"
     inkscape:window-width="1920"
     inkscape:window-height="1144"
     inkscape:window-x="0"
     inkscape:window-y="28"
     inkscape:window-maximized="1">
    <inkscape:grid
       type="xygrid"
       id="grid848" />
  </sodipodi:namedview>
  <metadata
     id="metadata5">
    <rdf:RDF>
      <cc:Work
         rdf:about="">
        <dc:format>image/svg+xml</dc:format>
        <dc:type
           rdf:resource="http://purl.org/dc/dcmitype/StillImage" />
        <dc:title />
      </cc:Work>
    </rdf:RDF>
  </metadata>
  <g
     inkscape:label="Layer 1"
     inkscape:groupmode="layer"
     id="layer1">
    <g
       inkscape:export-xdpi="96"
       inkscape:export-ydpi="96"
       id="g2844">
      <path
         inkscape:connector-curvature="0"
         id="path894"
         d="m -1975.5409,-107.01759 a 257.5,257.5 0 0 0 -257.5,257.50004 257.5,257.5 0 0 0 257.5,257.50007 257.5,257.5 0 0 0 257.4996,-257.50007 257.5,257.5 0 0 0 -257.4996,-257.50004 z m 0,57.500361 a 200,200 0 0 1 199.9997,199.999679 200,200 0 0 1 -199.9997,200.00018 200,200 0 0 1 -200.0001,-200.00018 200,200 0 0 1 200.0001,-199.999679 z"
         style="opacity:1;fill:#c8c8c8;fill-opacity:1;stroke:none;stroke-width:0.25331655;stroke-linecap:butt;stroke-miterlimit:4;stroke-dasharray:0.25331655, 0.25331655;stroke-dashoffset:0;stroke-opacity:1"
         inkscape:export-xdpi="96"
         inkscape:export-ydpi="96" />
      <g
         transform="matrix(1.1500411,0,0,1.1500411,306.51941,-109.66175)"
         id="g2257">
        <path
           style="opacity:1;fill:none;fill-opacity:1;stroke:#5a5a5a;stroke-width:13;stroke-linejoin:round;stroke-miterlimit:4;stroke-dasharray:none;stroke-dashoffset:0;stroke-opacity:1"
           d="m -1956.724,17.461153 c 103.2287,13.519613 182.9272,101.822087 182.9272,208.739147 0,51.54486 -18.5237,98.76328 -49.2773,135.36157 -13.1865,13.75069 -38.7144,6.67217 -54.4273,17.44583 -8.511,5.97727 -17.5309,11.23192 -26.9707,15.64937 -17.4263,8.70224 -36.1916,14.18009 -55.3669,16.60471 -18.8828,2.26286 -32.957,25.42685 -51.8968,23.70367 -34.4223,-4.4748 -66.2338,-17.26413 -93.3537,-36.2872 -15.1369,-11.56985 -10.2422,-37.91145 -22.3897,-52.58889 -36.4192,-43.74636 -51.5119,-105.04449 -38.9527,-160.59808 15.0569,-74.83493 82.7724,-134.617977 157.7195,-144.425648 18.8143,-2.870269 33.0304,-25.282172 51.9884,-23.604479 z m -3.2242,23.711179 c 30.9997,4.143509 60.9587,16.525925 86.1296,35.020123 50.4134,35.549215 79.3095,98.872905 75.6542,160.435545 -1.5081,40.16519 -17.6789,78.81371 -43.4428,109.42654 -12.4466,14.86643 -5.8887,41.1274 -21.9946,52.64629 -27.064,18.97638 -58.7983,31.74555 -93.1357,36.24038 -18.94,1.72577 -32.9247,-21.53591 -51.7909,-23.93779 -29.5914,-3.98869 -58.3024,-14.88218 -82.7369,-32.05469 -15.3859,-11.13657 -41.1589,-3.60371 -54.2785,-17.33785 -30.7783,-36.60514 -49.3185,-83.84271 -49.3185,-135.41058 0,-106.95332 79.7526,-195.279436 183.0323,-208.752879 18.9357,-1.749288 33.0695,20.946254 51.8818,23.724911 z"
           id="path818"
           inkscape:connector-curvature="0"
           sodipodi:nodetypes="cscccccccccccccccccccscc"
           inkscape:export-xdpi="96"
           inkscape:export-ydpi="96" />
        <path
           id="path2052"
           style="opacity:0.97000002;fill:#ff0066;fill-opacity:1;stroke:none;stroke-width:10;stroke-linejoin:round;stroke-miterlimit:4;stroke-dasharray:none;stroke-dashoffset:0;stroke-opacity:1"
           d="m 480.5265,-154.51639 c -0.29284,1.34776 -3.78742,1.71995 -7.79257,1.00299 -4.00476,-0.71689 -7.15498,-2.27825 -6.96227,-3.64465 0.19294,-1.36676 3.6967,-2.01762 7.84333,-1.27454 4.14627,0.74302 7.20409,2.5688 6.91151,3.9162 z m 28.7363,8.44993 c -0.48261,1.29236 -3.99572,1.16106 -7.85721,-0.12679 -3.86126,-1.28777 -6.74931,-3.29083 -6.36015,-4.61368 0.38939,-1.32301 3.94751,-1.45785 7.94082,-0.12635 3.99308,1.33143 6.7589,3.57463 6.27654,4.86682 z m 27.26719,12.42676 c -0.65875,1.21256 -4.12074,0.59151 -7.76593,-1.22678 -3.64514,-1.81825 -6.22331,-4.20994 -5.65118,-5.4653 0.57231,-1.25535 4.11496,-0.88699 7.88238,0.99202 3.76737,1.87899 6.19329,4.48747 5.53473,5.70006 z m 25.27252,16.10917 c -0.82128,1.10856 -4.16244,0.0111 -7.51872,-2.29695 -3.35639,-2.30816 -5.57698,-5.03578 -4.83536,-6.19954 0.7417,-1.16357 4.19902,-0.3052 7.66803,2.0806 3.4691,2.38587 5.50727,5.30713 4.68605,6.41589 z m 22.75232,19.497187 c -0.97034,0.980512 -4.12074,-0.580208 -7.11561,-3.337317 -2.99509,-2.75732 -4.81021,-5.76851 -3.91268,-6.81638 0.89749,-1.04754 4.19978,0.28737 7.29776,3.13937 3.09817,2.85219 4.70093,6.033492 3.73053,7.014327 z m 19.72199,22.567762 c -1.10162,0.831467 -3.99656,-1.166628 -6.56455,-4.328403 -2.56792,-3.161682 -3.93001,-6.404629 -2.89054,-7.312375 1.03968,-0.907697 4.11603,0.890436 6.77168,4.160097 2.65557,3.269573 3.78483,6.64915 2.68341,7.480681 z m 16.31959,25.142892 c -1.20792,0.667345 -3.79148,-1.719513 -5.88681,-5.212633 -2.09536,-3.493172 -2.98483,-6.896427 -1.82722,-7.647922 1.15767,-0.751321 3.94843,1.464062 6.11495,5.075996 2.16655,3.611983 2.80697,7.117037 1.59908,7.784559 z m 12.58531,27.202384 c -0.50403,0.190432 -1.17632,-0.112307 -1.92372,-0.849986 -1.09238,-1.078313 -2.25611,-2.997599 -3.15904,-5.148189 -1.5764,-3.754663 -1.97451,-7.249042 -0.72208,-7.828775 1.25229,-0.57948 3.70101,2.008992 5.33195,5.89323 0.93098,2.217222 1.41339,4.443761 1.33603,6.007523 -0.0526,1.062449 -0.36024,1.736119 -0.86314,1.926197 z m 8.54477,28.7268722 c -1.3476,0.2977582 -3.14849,-2.7233555 -4.16844,-6.6660921 -1.0199,-3.9425599 -0.91018,-7.4576261 0.41239,-7.8508957 1.32279,-0.393156 3.37268,2.521008 4.42766,6.5987632 1.05493,4.0775907 0.67578,7.6203371 -0.67161,7.9182246 z m 4.38046,29.6529878 c -1.37618,0.104614 -2.73325,-3.140786 -3.18564,-7.189366 -0.45238,-4.048579 0.15487,-7.513377 1.52015,-7.715105 1.3653,-0.201559 2.9813,2.974039 3.44906,7.159824 0.46775,4.185783 -0.4074,7.639861 -1.78357,7.744647 z m 0.13657,29.970621 c -1.37641,-0.09362 -2.25353,-3.497953 -2.12574,-7.566379 0.0814,-2.59206 0.56413,-5.011843 1.31421,-6.352263 0.38822,-0.693858 0.82955,-1.064809 1.28258,-1.067128 0.45241,-0.0023 0.89958,0.364441 1.28798,1.067128 0.75655,1.369173 1.19591,3.834699 1.11148,6.509586 -0.13291,4.210698 -1.49444,7.502479 -2.87051,7.409056 z m -4.16635,29.669635 c -1.34922,-0.288412 -1.73346,-3.783604 -1.02365,-7.793034 0.70978,-4.009232 2.27017,-7.159718 3.63606,-6.967776 1.36606,0.192138 2.01897,3.693278 1.2852,7.838918 -0.73374,4.145456 -2.54853,7.210097 -3.89761,6.921892 z m -8.30205,28.793409 c -1.29571,-0.47413 -1.18817,-3.98933 0.0767,-7.86125 1.26489,-3.8719 3.25329,-6.77262 4.57899,-6.39041 1.32567,0.38239 1.47985,3.9409 0.17255,7.94266 -1.3073,4.00173 -3.53252,6.78296 -4.82827,6.309 z m -12.24147,27.34883 c -1.21606,-0.65078 -0.61746,-4.11511 1.1754,-7.77102 1.79294,-3.65605 4.16611,-6.25081 5.42549,-5.6873 1.25918,0.56359 0.91529,4.10854 -0.93839,7.88794 -1.85376,3.77953 -4.44623,6.22107 -5.6625,5.57038 z m -15.98461,25.33591 c -1.11041,-0.81845 -0.0212,-4.16085 2.27237,-7.52234 2.29376,-3.36176 5.00877,-5.5942 6.17556,-4.85848 1.16642,0.7357 0.32544,4.1963 -2.04763,7.6748 -2.37325,3.47874 -5.28953,5.52453 -6.4003,4.70602 z m -22.90362,18.14006 c -0.066,-0.25941 -0.006,-0.54779 0.17054,-0.85598 0,0 0,-1e-5 0,-1e-5 0.69015,-1.22145 3.14395,-2.68633 5.80114,-3.97645 3.34449,-1.62381 6.52452,-2.81104 7.37569,-1.81399 0.42205,0.4945 0.25115,1.51705 -0.68683,2.78248 -0.94859,1.27975 -2.53021,2.58865 -4.49151,3.55209 -3.20142,1.57261 -6.32944,1.70875 -7.59977,0.97943 0,0 0,-1e-5 0,-1e-5 -0.31263,-0.18177 -0.50332,-0.40853 -0.56926,-0.66756 z m -29.58676,5.07585 c -0.38599,-1.35448 2.64726,-3.38246 6.94862,-4.08346 0.63763,-0.10391 1.27356,-0.17383 1.89403,-0.21064 0,0 0,0 0,0 3.38386,-0.22721 5.81406,0.52538 5.95476,1.64069 0.1453,1.15292 -2.0504,2.38394 -5.23138,3.14868 0,0 0,0 0,0 -0.58221,0.14479 -1.1836,0.26996 -1.78964,0.37391 -3.93626,0.67514 -7.4111,0.41205 -7.77639,-0.86918 z m -26.04015,14.55888 c -0.67073,-1.20554 1.70601,-3.79333 5.16931,-5.91505 3.46374,-2.12198 6.84949,-3.06352 7.61857,-1.9175 0.76867,1.14571 -1.40467,3.97465 -5.0066,6.18117 -3.60233,2.20677 -7.11016,2.85725 -7.78128,1.65138 z m -27.17243,12.64268 c -0.4799,-1.29326 2.26026,-3.48981 5.99147,-5.07257 3.73046,-1.58244 7.21265,-2.02655 7.80841,-0.78258 0.59596,1.24476 -1.9643,3.7327 -5.85955,5.38454 -3.89456,1.65155 -7.46054,1.76308 -7.94033,0.47061 z m -28.8844,7.97278 c -0.24862,-1.35761 2.83232,-3.05401 6.78928,-3.96437 3.95647,-0.91025 7.4631,-0.73023 7.82725,0.60009 0.36411,1.33083 -2.59657,3.32699 -6.71703,4.27512 -4.12002,0.94803 -7.6508,0.44627 -7.8995,-0.91084 z m -28.11602,9.2625 c -0.58982,-0.88629 0.59792,-2.91334 3.22841,-4.81939 0,0 0,0 0,0 0.62566,-0.45676 1.31055,-0.88461 2.03624,-1.26495 1.88097,-0.98582 3.81729,-1.53663 5.39439,-1.60625 1.55882,-0.0688 2.50914,0.33929 2.69543,0.96688 0.37228,1.25476 -2.36186,3.31299 -5.76559,5.08405 -0.65607,0.34137 -1.32544,0.66211 -1.9818,0.94499 0,0 0,0 0,0 -2.74846,1.19872 -4.99361,1.61625 -5.60708,0.69467 z m -25.68529,15.23471 c -0.2858,-1.06085 1.52578,-2.54334 4.0607,-4.02662 0,0 0,0 0,0 0.55932,-0.32863 1.15484,-0.6569 1.75535,-0.96708 3.44993,-1.78197 6.78251,-2.81874 7.57224,-1.63769 0.74368,1.11248 -1.36897,4.0476 -5.27825,6.07243 -0.66972,0.34689 -1.35827,0.64678 -2.04756,0.89106 0,0 0,0 0,0 -3.30207,1.18279 -5.7802,0.7152 -6.06248,-0.3321 z m -29.53462,-3.0629 c 0.31837,-1.34284 3.82192,-1.64948 7.81541,-0.85302 3.99329,0.79642 7.11122,2.42334 6.89037,3.78547 -0.22104,1.36228 -3.737,1.9414 -7.86822,1.11745 -4.13103,-0.82392 -7.15571,-2.70722 -6.83756,-4.0499 z m -28.59843,-8.97206 c 0.50569,-1.28407 4.01771,-1.09073 7.85824,0.26602 3.84052,1.35674 6.69461,3.41233 6.28154,4.72906 -0.41323,1.3167 -3.97555,1.38814 -7.94693,-0.0148 -3.97137,-1.40295 -6.69838,-3.69617 -6.19285,-4.98028 z m -27.03601,-12.93878 c 0.68326,-1.1989 4.13167,-0.50779 7.73999,1.38004 3.60846,1.88791 6.14243,4.32702 5.54684,5.57197 -0.59568,1.24475 -4.13225,0.81068 -7.86455,-1.14203 -3.73243,-1.95278 -6.10548,-4.61086 -5.42228,-5.80998 z m -23.21062,-18.45182 c 1.13909,-0.66008 3.75453,1.52094 6.37093,4.10414 0.39742,0.39238 0.79261,0.79516 1.16819,1.19312 0,0 0,0 0,0 2.14134,2.2688 3.56582,4.32121 2.89305,5.29743 -0.62801,0.91101 -3.22146,0.50184 -6.10495,-1.65951 0,0 0,0 0,0 -0.50949,-0.38308 -1.00427,-0.80922 -1.47317,-1.27203 -1.55481,-1.53459 -2.63421,-3.28434 -3.11765,-4.8067 -0.47793,-1.50501 -0.3008,-2.5293 0.2636,-2.85645 z m -8.32444,-28.74733 c 1.05563,-0.28269 2.53582,1.5124 3.53842,4.49221 0,0 0,0 0,0 0.25583,0.73556 0.47302,1.51367 0.64592,2.30651 0.88601,4.06273 0.46612,7.57311 -0.84159,7.88193 -1.38026,0.32577 -3.18663,-2.75693 -4.05683,-6.8217 -0.1674,-0.78194 -0.29316,-1.5651 -0.37496,-2.31692 0,0 0,0 0,0 -0.36249,-3.01458 0.0512,-5.26398 1.08904,-5.54203 z m -14.9513,-25.60222 c 1.11875,-0.80745 3.96547,1.25026 6.4777,4.43946 1.06472,1.35164 1.96631,2.78269 2.53003,4.04054 0.80321,1.73495 0.73641,2.9776 0.14095,3.38243 -0.62054,0.42177 -1.70984,-0.0185 -3.09655,-0.92187 -1.16089,-0.81006 -2.4006,-2.0099 -3.50161,-3.40807 -2.61334,-3.31866 -3.66864,-6.72529 -2.55052,-7.53249 z m -15.4964,-25.6453 c 1.23508,-0.61676 3.71499,1.87528 5.67437,5.43702 1.95917,3.56135 2.73646,6.98848 1.55566,7.70156 -1.18125,0.71316 -3.9014,-1.59283 -5.93654,-5.29121 -2.03494,-3.69804 -2.52812,-7.23063 -1.29349,-7.84737 z M 258.75593,108.0614 c 0.82258,-0.26077 1.97688,0.7632 3.09935,2.66385 0.61281,1.03733 1.18679,2.28588 1.65767,3.59275 1.37884,3.82673 1.60602,7.33589 0.32657,7.85394 -1.27966,0.51795 -3.6016,-2.18937 -5.03132,-6.15914 -0.48482,-1.34616 -0.81732,-2.70824 -0.96655,-3.93448 -0.2734,-2.24442 0.0965,-3.75755 0.91428,-4.01692 z m -6.8263,-29.18609 c 1.36398,-0.20913 2.96336,2.921646 3.73599,6.915052 0.77264,3.993565 0.4562,7.495473 -0.88779,7.809994 -1.34387,0.31432 -3.22055,-2.717938 -4.0218,-6.86022 -0.80128,-4.14243 -0.1905,-7.655503 1.1736,-7.864826 z m -2.19945,-29.884723 c 1.37959,0.0086 2.46453,3.351178 2.60248,7.412744 0.13796,4.061968 -0.71828,7.470591 -2.09452,7.572275 -1.37587,0.101486 -2.75848,-3.185133 -2.90172,-7.402582 -0.14326,-4.217821 1.01377,-7.590885 2.39376,-7.582437 z m 2.67517,-29.848406 c 1.35448,0.238233 1.87397,3.708041 1.36516,7.728209 -0.51001,4.029593 -1.89264,7.263629 -3.27242,7.142694 -1.37071,-0.12031 -2.21746,-3.583236 -1.68646,-7.771354 0.53209,-4.196763 2.23025,-7.33919 3.59372,-7.099549 z m 7.23577,-29.0808853 c 1.08608,0.370252 1.26261,2.8819734 0.58111,6.0904549 0,0 0,5e-7 0,5e-7 -0.1224,0.5797508 -0.27012,1.1694207 -0.43933,1.7543088 -1.12674,3.8946658 -2.98043,6.8786455 -4.32466,6.5508056 -1.33689,-0.3262258 -1.6512,-3.87988147 -0.47672,-7.9434807 0.17462,-0.6041556 0.37638,-1.1972175 0.60083,-1.7665241 0,0 0,-5e-7 0,-5e-7 1.25686,-3.1648537 2.98039,-5.0530402 4.05877,-4.6855645 z m 12.13494,-27.3550387 c 1.20833,0.664828 0.56586,4.115321 -1.23891,7.746239 -1.80441,3.630211 -4.16539,6.225572 -5.42449,5.667356 -1.25972,-0.558674 -0.92682,-4.105823 0.95143,-7.886558 1.87792,-3.780085 4.50421,-6.191356 5.71197,-5.527037 z m 16.56684,-24.976216 c 1.08635,0.853611 -0.10867,4.162555 -2.49354,7.45739 -2.38457,3.294421 -5.15227,5.462303 -6.30192,4.699937 -1.14994,-0.762772 -0.22784,-4.208459 2.24801,-7.631138 2.47558,-3.422295 5.46137,-5.379373 6.54745,-4.526189 z m 20.32757,-22.062546 c 0.93942,1.011095 -0.75231,4.094402 -3.62495,6.978899 -2.87251,2.88436 -5.95097,4.590789 -6.96698,3.654737 -1.01603,-0.936311 0.44104,-4.194966 3.42136,-7.186074 2.9802,-2.990982 6.23114,-4.458399 7.17057,-3.447562 z m 23.4583,-18.677275 c 0.77541,1.14272 -1.36646,3.934254 -4.64573,6.347175 -3.27935,2.412975 -6.58128,3.626971 -7.44136,2.546885 -0.8599,-1.080117 1.07681,-4.07559 4.47582,-6.57693 3.39909,-2.5014 6.83567,-3.45983 7.61127,-2.31713 z m 26.02982,-14.87751 c 0.58921,1.24723 -1.95437,3.67286 -5.56054,5.5535 -3.60649,1.8808 -7.05367,2.5784 -7.7392,1.37969 -0.68521,-1.19851 1.68559,-3.8636 5.42729,-5.81395 3.74199,-1.95051 7.28293,-2.36669 7.87245,-1.11924 z m 28.01515,-10.58735 c 0.38065,1.32509 -2.51776,3.30723 -6.36962,4.58813 -3.85243,1.28108 -7.36132,1.42865 -7.84946,0.13858 -0.48779,-1.2896 2.26951,-3.54805 6.27303,-4.87929 4.00406,-1.33142 7.56508,-1.17302 7.94605,0.15258 z m 29.33975,-6.28168 c 0.37885,1.3685 -2.67279,3.29045 -6.91917,4.00217 -4.13034,0.69227 -7.60558,0.0482 -7.84731,-1.24996 -0.26377,-1.41747 2.93591,-3.03702 7.02577,-3.70113 3.9633,-0.64356 7.39442,-0.30135 7.74071,0.94892 z m 25.77805,-14.98785 c 0.74091,1.12296 -1.36495,3.94071 -4.74212,6.31769 -3.4311,2.41493 -6.87008,3.37507 -7.63602,2.19313 -0.72988,-1.1266 1.39053,-3.92337 4.75282,-6.29275 3.41665,-2.40769 6.84791,-3.39603 7.62532,-2.21807 z"
           inkscape:path-effect="#path-effect2064"
           inkscape:original-d="m 463.79006,-157.42761 c 103.2287,13.51961 182.92721,101.822084 182.92721,208.739144 0,50.318516 -17.65273,96.514026 -47.10312,132.731426 -4.12175,5.4605 -10.93717,8.87956 -16.59883,10.38085 -13.0516,3.3707 -28.95371,2.11931 -40.00265,9.69513 -8.51099,5.97726 -17.53092,11.23191 -26.97073,15.64936 -17.42633,8.70223 -36.19156,14.18008 -55.36686,16.60473 -18.88284,2.26284 -32.95707,25.42682 -51.89678,23.70365 -30.80354,-4.00436 -59.51632,-14.66693 -84.64723,-30.49659 -6.94238,-4.21202 -12.77378,-8.35109 -16.18917,-15.30277 -6.32485,-13.09543 -5.40203,-31.65944 -14.90702,-43.07673 -29.30116,-35.19624 -44.79758,-81.753823 -43.19507,-127.540251 0.46937,-9.127992 1.21848,-17.028243 2.6623,-25.062684 1.44,-8.000346 3.22686,-15.9471064 5.40018,-23.1483491 19.17687,-63.1284069 75.80665,-113.0710359 140.03464,-126.8761859 7.98601,-1.82354 15.80928,-2.00966 22.76298,-5.17957 14.69025,-6.77012 27.23103,-22.22462 43.09015,-20.82116 z"
           inkscape:connector-curvature="0"
           sodipodi:nodetypes="csccccccscscccccc"
           transform="translate(-2420.2914,174.9753)"
           inkscape:export-xdpi="96"
           inkscape:export-ydpi="96" />
        <path
           style="opacity:0.97000002;fill:#3d9cdb;fill-opacity:1;stroke:none;stroke-width:10;stroke-linejoin:round;stroke-miterlimit:4;stroke-dasharray:none;stroke-dashoffset:0;stroke-opacity:1"
           d="m 472.39507,-131.72957 c -0.27453,1.35154 -3.76233,1.77206 -7.77149,1.13348 -4.00859,-0.6385 -7.19419,-2.12156 -7.03481,-3.49265 0.15961,-1.37164 3.65098,-2.10905 7.82295,-1.44326 4.17144,0.66571 7.25761,2.45141 6.98335,3.80243 z m 28.78474,8.31226 c -0.49092,1.28926 -4.00524,1.14161 -7.86061,-0.14293 -3.85504,-1.28442 -6.75046,-3.27173 -6.36572,-4.59573 0.38498,-1.32426 3.94891,-1.47641 7.95414,-0.14216 4.00492,1.33415 6.76282,3.5918 6.27219,4.88082 z m 27.11979,12.77496 c -0.68898,1.19568 -4.13998,0.49957 -7.74847,-1.37668 -3.60842,-1.87623 -6.15325,-4.29763 -5.56123,-5.54395 0.59222,-1.24631 4.13853,-0.83146 7.88409,1.11628 3.74549,1.94772 6.1144,4.60865 5.42561,5.80435 z m 24.85734,16.75857 c -0.84547,1.084855 -4.15865,-0.0849 -7.45913,-2.470834 -3.30728,-2.390843 -5.45762,-5.186706 -4.68282,-6.334186 0.7704,-1.14067 4.19558,-0.18861 7.60337,2.27598 3.41412,2.469188 5.38891,5.437686 4.53858,6.52904 z m 21.87317,20.455538 c -1.0261,0.921987 -4.07316,-0.821608 -6.90943,-3.721119 -2.83573,-2.898973 -4.51326,-5.983667 -3.57143,-6.990581 0.94245,-1.007326 4.18639,0.47405 7.14095,3.494368 2.95408,3.019824 4.36535,6.295701 3.33991,7.217332 z m 18.08998,23.890166 c -1.16522,0.74092 -3.88834,-1.483284 -6.20565,-4.822659 -2.31704,-3.338985 -3.44789,-6.666816 -2.34827,-7.499651 1.10007,-0.83297 4.04693,1.176693 6.45585,4.646759 2.40866,3.469706 3.26282,6.934727 2.09807,7.675551 z m 14.01323,26.502388 c -1.06289,0.45851 -2.90583,-1.318702 -4.55337,-4.205118 0,-1e-6 0,-1e-6 0,-1e-6 -0.28323,-0.495946 -0.55427,-1.013787 -0.8072,-1.541784 -1.75659,-3.666946 -2.33869,-7.135136 -1.11822,-7.780423 1.22069,-0.645211 3.80581,1.813507 5.62827,5.62064 0.25975,0.542632 0.49453,1.094076 0.69987,1.643283 0,0 0,1e-6 0,1e-6 1.20264,3.214619 1.20741,5.807385 0.15065,6.263402 z m 9.68467,28.3675764 c -1.33695,0.3419705 -3.23575,-2.6167797 -4.3981,-6.514039 -1.16238,-3.8973907 -1.19438,-7.4134168 0.11191,-7.8595406 1.30623,-0.4459206 3.4745,2.385966 4.68053,6.4303273 1.20606,4.0444829 0.94269,7.6010835 -0.39434,7.9432523 z m 5.09594,29.5280156 c -1.37374,0.124484 -2.77586,-3.097149 -3.30654,-7.125252 -0.53072,-4.028491 -0.0102,-7.50401 1.3496,-7.739074 1.35949,-0.234833 3.05537,2.901965 3.60642,7.086276 0.5511,4.18467 -0.27537,7.653362 -1.64948,7.77805 z m 0.34828,29.972711 c -1.37301,-0.07159 -2.31993,-3.461633 -2.23032,-7.550911 0.0898,-4.09911 1.19979,-7.449134 2.58525,-7.445864 1.37588,0.0034 2.50732,3.371092 2.41462,7.557436 -0.0929,4.195701 -1.38695,7.511253 -2.76955,7.439339 z m -4.1503,29.636033 c -1.34086,-0.314416 -1.65013,-3.803797 -0.90372,-7.780397 0.74622,-3.975546 2.2997,-7.12069 3.66487,-6.930489 1.36617,0.190514 2.02151,3.695844 1.24069,7.847973 -0.78064,4.151168 -2.66195,7.176925 -4.00184,6.862913 z m -9.36547,28.416842 c -1.27045,-0.54045 -0.97654,-4.04049 0.45937,-7.83551 1.43562,-3.79422 3.52922,-6.61005 4.83716,-6.17955 1.30865,0.4309 1.32944,3.99262 -0.1625,7.94188 -1.49166,3.94853 -3.86423,6.61316 -5.13403,6.07318 z m -13.95507,26.55955 c -1.17061,-0.73662 -0.32388,-4.15455 1.71381,-7.68193 2.03743,-3.52691 4.57418,-5.96843 5.79733,-5.32688 1.22351,0.64193 0.65646,4.16627 -1.45704,7.82711 -2.11326,3.66041 -4.88382,5.9179 -6.0541,5.1817 z m -17.72719,24.21037 c -0.64878,-0.42588 -0.7027,-1.85194 0.2907,-3.79234 0.57715,-1.16354 1.41869,-2.44432 2.39301,-3.6563 2.55111,-3.17341 5.43512,-5.19599 6.54535,-4.37246 1.1103,0.8238 0.003,4.2166 -2.64292,7.50367 -1.00426,1.24758 -2.1214,2.33894 -3.19158,3.13051 -1.50878,1.05814 -2.71139,1.63525 -3.39456,1.18692 z m -8.49486,28.58147 c -0.84407,-0.1823 -1.35583,-1.66448 -1.37524,-3.90106 -0.0143,-1.19686 0.1103,-2.56121 0.37202,-3.93169 0.78823,-4.12743 2.61891,-7.20204 3.99301,-6.87158 1.30439,0.31387 1.68812,3.79404 0.92131,7.81001 -0.26069,1.36526 -0.6406,2.68278 -1.11088,3.81011 -0.87395,2.10886 -1.94848,3.26805 -2.80022,3.08421 z m -15.67303,24.32113 c -0.58328,-0.86669 0.51133,-2.70118 2.66327,-4.65612 0,0 0,0 0,0 0.5059,-0.47472 1.17352,-1.09052 1.7161,-1.58733 2.61865,-2.39771 5.14948,-4.69089 6.34157,-3.98396 0.56079,0.33265 0.73608,1.3639 0.25047,2.86729 -0.48996,1.51691 -1.59371,3.28724 -3.24109,4.79931 -0.73742,0.67684 -1.5375,1.25904 -2.36165,1.72503 0,0 0,0 0,0 -2.6418,1.40407 -4.78883,1.69712 -5.36867,0.83578 z m -26.06621,14.79396 c -0.59731,-1.24336 1.93714,-3.67695 5.54839,-5.55892 3.61113,-1.88191 7.06416,-2.56895 7.74942,-1.37185 0.68517,1.19728 -1.68921,3.84857 -5.42487,5.79559 -3.73555,1.94697 -7.27552,2.37836 -7.87294,1.13518 z m -27.90098,10.95005 c -0.41362,-1.31577 2.44068,-3.36719 6.28196,-4.71964 3.84134,-1.35247 7.35561,-1.54331 7.86252,-0.26062 0.50673,1.28271 -2.22068,3.57152 -6.19381,4.9706 -3.97318,1.39909 -7.53687,1.32543 -7.95067,0.01 z m -29.17003,6.87765 c -0.21945,-1.36221 2.89998,-2.98463 6.89315,-3.77609 3.9934,-0.79151 7.49712,-0.48164 7.81514,0.8606 0.3178,1.34204 -2.70788,3.22177 -6.84035,4.04133 -4.13269,0.81959 -7.64828,0.23658 -7.86794,-1.12584 z M 441.64166,252.295 c 0.80022,-1.17471 4.12703,-0.10874 7.56003,1.72318 0.73618,0.39284 1.46523,0.81428 2.13027,1.23127 0,0 0,0 0,0 2.31447,1.4466 3.90073,2.8552 3.61112,3.85767 -0.28432,0.98368 -2.51608,1.42728 -5.58109,0.3994 0,0 -10e-6,0 -10e-6,0 -0.84114,-0.27881 -1.68973,-0.64531 -2.51146,-1.08416 -3.87604,-2.07004 -5.96222,-5.02115 -5.20886,-6.12736 z m -25.6256,-15.34287 c 0.18145,-0.62869 1.1287,-1.0445 2.68895,-0.98505 1.57856,0.0601 3.51952,0.6015 5.40708,1.58206 0.88534,0.45992 1.70794,0.98972 2.43542,1.55486 0,0 0,0 0,0 2.37392,1.83092 3.39807,3.69174 2.83927,4.5292 -0.57928,0.86793 -2.61943,0.54631 -5.18684,-0.51538 0,0 0,0 0,0 -0.78817,-0.32199 -1.60365,-0.70432 -2.4001,-1.11641 -3.39988,-1.75916 -6.14611,-3.79327 -5.78378,-5.04928 z m -29.37078,-5.99438 c 0.36153,-1.33209 3.87127,-1.51699 7.83409,-0.59401 3.96289,0.923 7.03558,2.641 6.77925,3.9972 -0.25649,1.35611 -3.78791,1.83441 -7.89937,0.87714 -4.11152,-0.95728 -7.07536,-2.94812 -6.71397,-4.28033 z m -28.20504,-10.15932 c 0.56655,-1.25727 4.06034,-0.89096 7.82841,0.63542 3.76837,1.52651 6.53688,3.69766 6.07205,4.99713 -0.46489,1.2991 -4.02919,1.22401 -7.94136,-0.36121 -3.91244,-1.58533 -6.52563,-4.0137 -5.9591,-5.27134 z m -26.20722,-14.5111 c 0.76515,-1.14773 4.15202,-0.21694 7.62016,1.89277 3.46863,2.11002 5.85275,4.69055 5.18605,5.89784 -0.66658,1.20673 -4.17335,0.56628 -7.78077,-1.62747 -3.60787,-2.19402 -5.79075,-5.01486 -5.02544,-6.16314 z m -27.90628,-9.64802 c 0.156,-1.33684 3.62806,-2.16183 7.8424,-1.45951 1.40826,0.23468 2.75196,0.62251 3.8976,1.12403 0,0 0,0 0,0 2.18105,0.94599 3.25951,2.15452 3.01106,2.98226 -0.25094,0.83566 -1.76781,1.21044 -3.9375,1.17953 0,0 0,0 0,0 -1.15134,-0.0136 -2.47711,-0.13881 -3.79083,-0.35677 -3.95749,-0.65661 -7.18677,-2.06237 -7.02273,-3.46954 z m -28.162,-8.76006 c 0.86328,-0.96177 4.01491,0.26586 7.31535,1.81177 1.37295,0.64309 2.75855,1.35799 3.82946,2.04957 1.5115,0.96754 2.37683,1.88787 2.19261,2.64539 -0.17878,0.7348 -1.39419,1.22507 -3.35872,1.11793 -1.44594,-0.079 -3.13989,-0.49479 -4.79875,-1.28009 -1.98558,-0.93996 -3.58169,-2.24972 -4.53115,-3.54695 -0.93794,-1.28149 -1.08332,-2.31341 -0.6488,-2.79762 z m -17.865,-24.02281 c 1.16753,-0.73447 3.88013,1.50079 6.16985,4.86524 2.28954,3.3642 3.37416,6.70775 2.26282,7.52463 -1.11169,0.81693 -4.0249,-1.23235 -6.39376,-4.71339 -2.3687,-3.48079 -3.20608,-6.94203 -2.03891,-7.67648 z m -14.11525,-26.42521 c 1.25976,-0.56266 3.63125,2.0337 5.42154,5.69123 1.79023,3.6574 2.38593,7.12228 1.16933,7.77204 -1.2168,0.64968 -3.80719,-1.79397 -5.65807,-5.57473 -1.85081,-3.78065 -2.19236,-7.32578 -0.9328,-7.88854 z m -10.28031,-28.14759 c 1.32583,-0.38154 3.31275,2.52005 4.57563,6.39255 1.26289,3.87254 1.36852,7.38777 0.0726,7.86118 -1.296,0.47323 -3.51962,-2.30917 -4.82477,-6.31143 -1.30516,-4.0023 -1.14922,-7.56059 0.17659,-7.9423 z m -6.2436,-29.304122 c 1.36591,-0.19118 2.92447,2.959942 3.63213,6.969233 0.70769,4.009503 0.32177,7.504298 -1.02753,7.792026 -1.34914,0.287518 -3.16232,-2.777855 -3.89388,-6.923476 -0.73159,-4.145817 -0.0768,-7.646405 1.28928,-7.837783 z m -2.00524,-29.894741 c 0.48718,0.0029 0.95953,0.431808 1.36658,1.226757 0.70186,1.370538 1.14827,3.707368 1.22457,6.194465 0.12482,4.068299 -0.75447,7.471876 -2.13088,7.564595 -1.37606,0.09252 -2.73546,-3.200023 -2.86538,-7.410869 -0.0792,-2.566281 0.32361,-4.947323 1.03139,-6.348191 0.40728,-0.805799 0.88735,-1.229555 1.37372,-1.226757 z m 2.29564,-29.8876 c 1.36512,0.202756 1.96977,3.668008 1.51433,7.716244 -0.45543,4.048237 -1.81495,7.292615 -3.19105,7.186964 -1.37609,-0.105822 -2.24864,-3.560558 -1.77773,-7.745987 0.47091,-4.18543 2.0893,-7.359809 3.45445,-7.157221 z m 6.49318,-29.2605677 c 1.32227,0.3942797 1.4293,3.9094255 0.40641,7.851199 -1.02294,3.9419511 -2.82612,6.9616969 -4.17349,6.6629189 -1.34716,-0.2989071 -1.72363,-3.8419377 -0.6656,-7.9187286 1.05808,-4.0769562 3.11019,-6.9895558 4.43268,-6.5953893 z M 245.05925,-37.09209 c 1.25199,0.580687 0.85121,4.074764 -0.72807,7.828221 -0.93534,2.223005 -2.14697,4.193479 -3.26869,5.247514 -0.70634,0.663641 -1.33927,0.92831 -1.81868,0.746752 -0.47847,-0.181266 -0.78024,-0.800461 -0.85259,-1.778705 -0.11572,-1.564949 0.36703,-3.862388 1.33158,-6.154637 1.63391,-3.882978 4.0846,-6.469581 5.33645,-5.889145 z m 14.51438,-26.225009 c 1.15704,0.752368 0.265,4.154952 -1.833,7.646543 -2.09797,3.49154 -4.68334,5.876443 -5.89075,5.208183 -1.20738,-0.668436 -0.56431,-4.173005 1.60497,-7.783349 2.16925,-3.610295 4.96168,-5.823572 6.11878,-5.071377 z m 18.07871,-23.909462 c 1.03878,0.908535 -0.32576,4.150446 -2.89607,7.310181 -2.57038,3.15983 -5.46682,5.155739 -6.56781,4.323441 -1.1008,-0.832363 0.031,-4.211087 2.68906,-7.478653 2.65812,-3.267653 5.73584,-5.063454 6.77482,-4.154969 z m 21.31132,-21.064289 c 0.89673,1.04855 -0.92069,4.05836 -3.91788,6.81338 -2.99698,2.754827 -6.14857,4.313123 -7.11815,3.331869 -0.96965,-0.981577 0.63555,-4.161639 3.73589,-7.011449 3.10014,-2.84963 6.40345,-4.18202 7.30014,-3.1338 z m 24.0916,-17.82175 c 0.74074,1.16432 -1.48191,3.89027 -4.84003,6.19589 -3.35803,2.30556 -6.70002,3.40046 -7.52046,2.29127 -0.82038,-1.10938 1.22,-4.0291 4.69089,-6.41234 3.47081,-2.38318 6.92877,-3.23894 7.6696,-2.07482 z m 26.34627,-14.28493 c 0.57119,1.25579 -2.00878,3.64553 -5.65528,5.46105 -3.64655,1.81554 -7.109,2.43398 -7.76684,1.22093 -0.65765,-1.21308 1.77023,-3.81973 5.53901,-5.69588 3.76883,-1.87618 7.31175,-2.24187 7.88311,-0.9861 z m 28.07529,-10.45394 c 0.38816,1.32314 -2.5014,3.324 -6.36363,4.60885 -3.86245,1.28493 -7.37566,1.41358 -7.85728,0.12086 -0.48139,-1.29255 2.28611,-3.53366 6.2802,-4.86207 3.99431,-1.32849 7.55232,-1.19095 7.94071,0.13236 z m 29.27863,-6.32877 c 0.19166,1.36655 -2.95977,2.92548 -6.96508,3.63931 -4.0057,0.71389 -7.49999,0.33902 -7.7918,-1.00895 -0.29156,-1.34763 2.76766,-3.17108 6.91451,-3.91092 4.14721,-0.73991 7.65048,-0.0863 7.84237,1.28056 z m 27.52702,9.63035 c -0.81459,1.16134 -4.15508,0.0592 -7.55327,-2.02481 -2.27619,-1.39594 -4.30311,-3.03949 -5.05587,-4.26466 -0.32125,-0.52453 -0.4244,-0.98285 -0.27212,-1.34314 0.15161,-0.35855 0.55566,-0.60965 1.19264,-0.70425 1.57776,-0.23887 4.19688,0.49421 6.74326,2.04666 3.68225,2.24495 5.71347,5.19485 4.94536,6.2902 z"
           id="path818-56"
           inkscape:path-effect="#path-effect2071"
           inkscape:original-d="m 460.56582,-133.71643 c 27.48314,3.67347 54.14824,13.82262 77.38404,28.96522 7.03247,4.67838 14.04971,9.74205 20.0394,14.777766 39.73691,33.5186 63.49918,85.2419478 64.62813,137.346318 0.0186,9.418343 -0.19134,18.555187 -1.11164,27.270037 -3.80342,35.485099 -19.60704,69.203759 -42.59894,96.522869 -12.44653,14.86643 -5.88862,41.12738 -21.99455,52.64628 -27.06401,18.97637 -58.7983,31.74556 -93.13571,36.24038 -18.93999,1.72577 -32.92471,-21.53592 -51.79088,-23.93778 -29.59144,-3.9887 -58.91665,-15.11842 -83.3511,-32.29093 -15.38595,-11.13658 -40.54469,-3.36747 -53.66432,-17.10162 -30.77827,-36.60513 -49.31848,-83.8427 -49.31848,-135.410576 -1e-5,-106.95332 79.75258,-195.279434 183.03226,-208.752874 18.93571,-1.74929 33.06955,20.94625 51.88179,23.72491 z"
           inkscape:connector-curvature="0"
           sodipodi:nodetypes="cccccccccccscc"
           transform="translate(-2420.2914,174.9753)"
           inkscape:export-xdpi="96"
           inkscape:export-ydpi="96" />
        <path
           inkscape:connector-curvature="0"
           style="opacity:1;fill:#f9ff00;fill-opacity:1;stroke:none;stroke-width:0.15366055;stroke-linecap:butt;stroke-miterlimit:4;stroke-dasharray:0.15366051, 0.15366051;stroke-dashoffset:0;stroke-opacity:1"
           d="m -1989.8861,423.15013 a 5.557973,5.557973 0 0 1 5.5452,-5.57075 5.557973,5.557973 0 0 1 5.5707,5.54518 5.557973,5.557973 0 0 1 -5.5451,5.57075 5.557973,5.557973 0 0 1 -5.5708,-5.54518 z"
           id="path914-6-9-1-2"
           inkscape:export-xdpi="96"
           inkscape:export-ydpi="96" />
        <path
           style="opacity:1;fill:#5a5a5a;fill-opacity:1;stroke:none;stroke-width:1.24792027;stroke-linejoin:round;stroke-miterlimit:4;stroke-dasharray:none;stroke-dashoffset:0;stroke-opacity:0.19298245"
           d="m -1853.3859,372.92261 a 7.5000093,4.4844677 0 0 1 -7.5,4.48438 7.5000093,4.4844677 0 0 1 -7.5,-4.48438 7.5000093,4.4844677 0 0 1 7.5,-4.48437 7.5000093,4.4844677 0 0 1 7.5,4.48437"
           id="path1209-7"
           inkscape:connector-curvature="0"
           inkscape:export-xdpi="96"
           inkscape:export-ydpi="96" />
        <path
           style="opacity:1;fill:#5a5a5a;fill-opacity:1;stroke:none;stroke-width:1.2722671;stroke-linejoin:round;stroke-miterlimit:4;stroke-dasharray:none;stroke-dashoffset:0;stroke-opacity:0.19298245"
           d="m -1847.9656,362.21653 a 4.073686,8.5815955 15.439322 0 1 0.9473,10.09168 4.073686,8.5815955 15.439322 0 1 -6.3544,6.11217 4.073686,8.5815955 15.439322 0 1 -0.9472,-10.09167 4.073686,8.5815955 15.439322 0 1 6.3543,-6.11218"
           id="path1209-7-0"
           inkscape:connector-curvature="0"
           inkscape:export-xdpi="96"
           inkscape:export-ydpi="96" />
        <path
           inkscape:connector-curvature="0"
           style="opacity:1;fill:#f9ff00;fill-opacity:1;stroke:none;stroke-width:0.15366055;stroke-linecap:butt;stroke-miterlimit:4;stroke-dasharray:0.15366051, 0.15366051;stroke-dashoffset:0;stroke-opacity:1"
           d="m -1856.2071,371.56548 a 5.557973,5.557973 0 0 1 5.5452,-5.57075 5.557973,5.557973 0 0 1 5.5707,5.54518 5.557973,5.557973 0 0 1 -5.5451,5.57075 5.557973,5.557973 0 0 1 -5.5708,-5.54518 z"
           id="path914-6-9-1-9"
           inkscape:export-xdpi="96"
           inkscape:export-ydpi="96" />
        <path
           style="opacity:1;fill:#5a5a5a;fill-opacity:1;stroke:none;stroke-width:1.24792027;stroke-linejoin:round;stroke-miterlimit:4;stroke-dasharray:none;stroke-dashoffset:0;stroke-opacity:0.19298245"
           d="m -1986.0286,22.462511 a 7.5000093,4.4844676 0 0 1 -7.5,4.48438 7.5000093,4.4844676 0 0 1 -7.5,-4.48438 7.5000093,4.4844676 0 0 1 7.5,-4.48437 7.5000093,4.4844676 0 0 1 7.5,4.48437"
           id="path1209-7-9"
           inkscape:connector-curvature="0"
           inkscape:export-xdpi="96"
           inkscape:export-ydpi="96" />
        <path
           style="opacity:1;fill:#5a5a5a;fill-opacity:1;stroke:none;stroke-width:1.24792027;stroke-linejoin:round;stroke-miterlimit:4;stroke-dasharray:none;stroke-dashoffset:0;stroke-opacity:0.19298245"
           d="m -1977.8488,27.284091 a 7.5000093,4.4844676 0 0 1 -7.5,4.48438 7.5000093,4.4844676 0 0 1 -7.5,-4.48438 7.5000093,4.4844676 0 0 1 7.5,-4.48437 7.5000093,4.4844676 0 0 1 7.5,4.48437"
           id="path1209-7-9-3"
           inkscape:connector-curvature="0"
           inkscape:export-xdpi="96"
           inkscape:export-ydpi="96" />
        <path
           style="opacity:1;fill:#5a5a5a;fill-opacity:1;stroke:none;stroke-width:1.24792027;stroke-linejoin:round;stroke-miterlimit:4;stroke-dasharray:none;stroke-dashoffset:0;stroke-opacity:0.19298245"
           d="m -1982.2157,33.059692 a 7.5000093,4.4844676 0 0 1 -7.5,4.48438 7.5000093,4.4844676 0 0 1 -7.5,-4.48438 7.5000093,4.4844676 0 0 1 7.5,-4.48437 7.5000093,4.4844676 0 0 1 7.5,4.48437"
           id="path1209-7-9-6"
           inkscape:connector-curvature="0"
           inkscape:export-xdpi="96"
           inkscape:export-ydpi="96" />
        <path
           inkscape:connector-curvature="0"
           style="opacity:1;fill:#f9ff00;fill-opacity:1;stroke:none;stroke-width:0.15366055;stroke-linecap:butt;stroke-miterlimit:4;stroke-dasharray:0.15366051, 0.15366051;stroke-dashoffset:0;stroke-opacity:1"
           d="m -1989.942,28.643666 a 5.557973,5.557973 0 0 1 5.5452,-5.570753 5.557973,5.557973 0 0 1 5.5707,5.545183 5.557973,5.557973 0 0 1 -5.5451,5.57075 5.557973,5.557973 0 0 1 -5.5708,-5.54518 z"
           id="path914-6-9-1"
           inkscape:export-xdpi="96"
           inkscape:export-ydpi="96" />
        <path
           style="opacity:1;fill:#5a5a5a;fill-opacity:1;stroke:none;stroke-width:1.24792027;stroke-linejoin:round;stroke-miterlimit:4;stroke-dasharray:none;stroke-dashoffset:0;stroke-opacity:0.19298245"
           d="m -2100.2388,373.04928 a 7.5000093,4.4844676 0 0 1 -7.5,4.48438 7.5000093,4.4844676 0 0 1 -7.5,-4.48438 7.5000093,4.4844676 0 0 1 7.5,-4.48437 7.5000093,4.4844676 0 0 1 7.5,4.48437"
           id="path1209-7-9-0"
           inkscape:connector-curvature="0"
           inkscape:export-xdpi="96"
           inkscape:export-ydpi="96" />
        <path
           style="opacity:1;fill:#5a5a5a;fill-opacity:1;stroke:none;stroke-width:1.24792027;stroke-linejoin:round;stroke-miterlimit:4;stroke-dasharray:none;stroke-dashoffset:0;stroke-opacity:0.19298245"
           d="m -2111.3891,371.72636 a 7.5000093,4.4844676 0 0 1 -7.5,4.48438 7.5000093,4.4844676 0 0 1 -7.5,-4.48438 7.5000093,4.4844676 0 0 1 7.5,-4.48437 7.5000093,4.4844676 0 0 1 7.5,4.48437"
           id="path1209-7-9-0-6"
           inkscape:connector-curvature="0"
           inkscape:export-xdpi="96"
           inkscape:export-ydpi="96" />
        <path
           style="opacity:1;fill:#5a5a5a;fill-opacity:1;stroke:none;stroke-width:1.24792027;stroke-linejoin:round;stroke-miterlimit:4;stroke-dasharray:none;stroke-dashoffset:0;stroke-opacity:0.19298245"
           d="m -2117.0187,376.80853 a 7.5000093,4.4844676 78.522536 0 1 -5.8871,-6.45771 7.5000093,4.4844676 78.522536 0 1 2.9023,-8.24234 7.5000093,4.4844676 78.522536 0 1 5.8871,6.45771 7.5000093,4.4844676 78.522536 0 1 -2.9023,8.24234"
           id="path1209-7-9-0-2"
           inkscape:connector-curvature="0"
           inkscape:export-xdpi="96"
           inkscape:export-ydpi="96" />
        <path
           style="opacity:1;fill:#5a5a5a;fill-opacity:1;stroke:none;stroke-width:1.24792027;stroke-linejoin:round;stroke-miterlimit:4;stroke-dasharray:none;stroke-dashoffset:0;stroke-opacity:0.19298245"
           d="m -2108.0818,374.93916 a 7.5000093,4.4844676 0 0 1 -7.5,4.48438 7.5000093,4.4844676 0 0 1 -7.5,-4.48438 7.5000093,4.4844676 0 0 1 7.5,-4.48437 7.5000093,4.4844676 0 0 1 7.5,4.48437"
           id="path1209-7-9-0-61"
           inkscape:connector-curvature="0"
           inkscape:export-xdpi="96"
           inkscape:export-ydpi="96" />
        <path
           inkscape:connector-curvature="0"
           style="opacity:1;fill:#f9ff00;fill-opacity:1;stroke:none;stroke-width:0.15366055;stroke-linecap:butt;stroke-miterlimit:4;stroke-dasharray:0.15366051, 0.15366051;stroke-dashoffset:0;stroke-opacity:1"
           d="m -2123.0492,371.44081 a 5.557973,5.557973 0 0 1 5.5452,-5.57075 5.557973,5.557973 0 0 1 5.5707,5.54518 5.557973,5.557973 0 0 1 -5.5451,5.57075 5.557973,5.557973 0 0 1 -5.5708,-5.54518 z"
           id="path914-6-9-1-1"
           inkscape:export-xdpi="96"
           inkscape:export-ydpi="96" />
        <path
           style="opacity:1;fill:#5a5a5a;fill-opacity:1;stroke:none;stroke-width:1.24792027;stroke-linejoin:round;stroke-miterlimit:4;stroke-dasharray:none;stroke-dashoffset:0;stroke-opacity:0.19298245"
           d="m -1964.0085,415.7268 a 7.5000091,4.4844676 0 0 1 -7.5,4.48438 7.5000091,4.4844676 0 0 1 -7.5,-4.48438 7.5000091,4.4844676 0 0 1 7.5,-4.48437 7.5000091,4.4844676 0 0 1 7.5,4.48437"
           id="path1209-7-3"
           inkscape:connector-curvature="0"
           inkscape:export-xdpi="96"
           inkscape:export-ydpi="96" />
        <path
           style="opacity:1;fill:#5a5a5a;fill-opacity:1;stroke:none;stroke-width:1.24792027;stroke-linejoin:round;stroke-miterlimit:4;stroke-dasharray:none;stroke-dashoffset:0;stroke-opacity:0.19298245"
           d="m -1957.1066,413.75482 a 7.5000091,4.4844676 0 0 1 -7.5,4.48438 7.5000091,4.4844676 0 0 1 -7.5,-4.48438 7.5000091,4.4844676 0 0 1 7.5,-4.48437 7.5000091,4.4844676 0 0 1 7.5,4.48437"
           id="path1209-7-3-0"
           inkscape:connector-curvature="0"
           inkscape:export-xdpi="96"
           inkscape:export-ydpi="96" />
        <path
           style="opacity:1;fill:#5a5a5a;fill-opacity:1;stroke:none;stroke-width:1.07081938;stroke-linejoin:round;stroke-miterlimit:4;stroke-dasharray:none;stroke-dashoffset:0;stroke-opacity:0.19298245"
           d="m -1991.0756,431.5848 a 5.058848,4.8953051 0 0 1 -5.0588,4.8952 5.058848,4.8953051 0 0 1 -5.0588,-4.8952 5.058848,4.8953051 0 0 1 5.0588,-4.8952 5.058848,4.8953051 0 0 1 5.0588,4.8952"
           id="path1209-7-3-7"
           inkscape:connector-curvature="0"
           inkscape:export-xdpi="96"
           inkscape:export-ydpi="96" />
        <path
           style="opacity:1;fill:#5a5a5a;fill-opacity:1;stroke:none;stroke-width:0.69337237;stroke-linejoin:round;stroke-miterlimit:4;stroke-dasharray:none;stroke-dashoffset:0;stroke-opacity:0.19298245"
           d="m -1998.3055,412.76883 a 3.2756834,3.1697869 0 0 1 -3.2757,3.16973 3.2756834,3.1697869 0 0 1 -3.2756,-3.16973 3.2756834,3.1697869 0 0 1 3.2756,-3.16972 3.2756834,3.1697869 0 0 1 3.2757,3.16972"
           id="path1209-7-3-7-8"
           inkscape:connector-curvature="0"
           inkscape:export-xdpi="96"
           inkscape:export-ydpi="96" />
        <path
           style="opacity:1;fill:#5a5a5a;fill-opacity:1;stroke:none;stroke-width:0.69337237;stroke-linejoin:round;stroke-miterlimit:4;stroke-dasharray:none;stroke-dashoffset:0;stroke-opacity:0.19298245"
           d="m -1995.0188,414.24781 a 3.2756834,3.1697869 0 0 1 -3.2757,3.16973 3.2756834,3.1697869 0 0 1 -3.2757,-3.16973 3.2756834,3.1697869 0 0 1 3.2757,-3.16972 3.2756834,3.1697869 0 0 1 3.2757,3.16972"
           id="path1209-7-3-7-88"
           inkscape:connector-curvature="0"
           inkscape:export-xdpi="96"
           inkscape:export-ydpi="96" />
        <path
           style="opacity:1;fill:#5a5a5a;fill-opacity:1;stroke:none;stroke-width:0.69337237;stroke-linejoin:round;stroke-miterlimit:4;stroke-dasharray:none;stroke-dashoffset:0;stroke-opacity:0.19298245"
           d="m -1990.4176,417.04146 a 3.2756834,3.1697869 0 0 1 -3.2756,3.16972 3.2756834,3.1697869 0 0 1 -3.2757,-3.16972 3.2756834,3.1697869 0 0 1 3.2757,-3.16972 3.2756834,3.1697869 0 0 1 3.2756,3.16972"
           id="path1209-7-3-7-4"
           inkscape:connector-curvature="0"
           inkscape:export-xdpi="96"
           inkscape:export-ydpi="96" />
        <path
           style="opacity:1;fill:#5a5a5a;fill-opacity:1;stroke:none;stroke-width:0.69337237;stroke-linejoin:round;stroke-miterlimit:4;stroke-dasharray:none;stroke-dashoffset:0;stroke-opacity:0.19298245"
           d="m -1992.7182,415.2338 a 3.2756834,3.1697869 0 0 1 -3.2757,3.16973 3.2756834,3.1697869 0 0 1 -3.2757,-3.16973 3.2756834,3.1697869 0 0 1 3.2757,-3.16972 3.2756834,3.1697869 0 0 1 3.2757,3.16972"
           id="path1209-7-3-7-3"
           inkscape:connector-curvature="0"
           inkscape:export-xdpi="96"
           inkscape:export-ydpi="96" />
        <path
           style="opacity:1;fill:#5a5a5a;fill-opacity:1;stroke:none;stroke-width:0.69337237;stroke-linejoin:round;stroke-miterlimit:4;stroke-dasharray:none;stroke-dashoffset:0;stroke-opacity:0.19298245"
           d="m -1973.4914,428.216 a 3.2756834,3.1697869 0 0 1 -3.2757,3.16972 3.2756834,3.1697869 0 0 1 -3.2757,-3.16972 3.2756834,3.1697869 0 0 1 3.2757,-3.16972 3.2756834,3.1697869 0 0 1 3.2757,3.16972"
           id="path1209-7-3-7-1"
           inkscape:connector-curvature="0"
           inkscape:export-xdpi="96"
           inkscape:export-ydpi="96" />
        <path
           style="opacity:1;fill:#5a5a5a;fill-opacity:1;stroke:none;stroke-width:0.69337237;stroke-linejoin:round;stroke-miterlimit:4;stroke-dasharray:none;stroke-dashoffset:0;stroke-opacity:0.19298245"
           d="m -1972.1768,418.52044 a 3.2756834,3.1697869 0 0 1 -3.2756,3.16972 3.2756834,3.1697869 0 0 1 -3.2757,-3.16972 3.2756834,3.1697869 0 0 1 3.2757,-3.16972 3.2756834,3.1697869 0 0 1 3.2756,3.16972"
           id="path1209-7-3-7-49"
           inkscape:connector-curvature="0"
           inkscape:export-xdpi="96"
           inkscape:export-ydpi="96" />
        <path
           style="opacity:1;fill:#5a5a5a;fill-opacity:1;stroke:none;stroke-width:0.69337237;stroke-linejoin:round;stroke-miterlimit:4;stroke-dasharray:none;stroke-dashoffset:0;stroke-opacity:0.19298245"
           d="m -1968.2328,431.83129 a 3.2756834,3.1697869 0 0 1 -3.2757,3.16973 3.2756834,3.1697869 0 0 1 -3.2757,-3.16973 3.2756834,3.1697869 0 0 1 3.2757,-3.16972 3.2756834,3.1697869 0 0 1 3.2757,3.16972"
           id="path1209-7-3-7-2"
           inkscape:connector-curvature="0"
           inkscape:export-xdpi="96"
           inkscape:export-ydpi="96" />
        <path
           style="opacity:1;fill:#5a5a5a;fill-opacity:1;stroke:none;stroke-width:0.69337237;stroke-linejoin:round;stroke-miterlimit:4;stroke-dasharray:none;stroke-dashoffset:0;stroke-opacity:0.19298245"
           d="m -1966.5895,433.80328 a 3.2756834,3.1697869 0 0 1 -3.2757,3.16972 3.2756834,3.1697869 0 0 1 -3.2756,-3.16972 3.2756834,3.1697869 0 0 1 3.2756,-3.16972 3.2756834,3.1697869 0 0 1 3.2757,3.16972"
           id="path1209-7-3-7-0"
           inkscape:connector-curvature="0"
           inkscape:export-xdpi="96"
           inkscape:export-ydpi="96" />
        <path
           style="opacity:1;fill:#5a5a5a;fill-opacity:1;stroke:none;stroke-width:0.69337237;stroke-linejoin:round;stroke-miterlimit:4;stroke-dasharray:none;stroke-dashoffset:0;stroke-opacity:0.19298245"
           d="m -1963.1385,432.98162 a 3.2756834,3.1697869 0 0 1 -3.2757,3.16972 3.2756834,3.1697869 0 0 1 -3.2757,-3.16972 3.2756834,3.1697869 0 0 1 3.2757,-3.16972 3.2756834,3.1697869 0 0 1 3.2757,3.16972"
           id="path1209-7-3-7-6"
           inkscape:connector-curvature="0"
           inkscape:export-xdpi="96"
           inkscape:export-ydpi="96" />
        <path
           style="opacity:1;fill:#5a5a5a;fill-opacity:1;stroke:none;stroke-width:0.69337237;stroke-linejoin:round;stroke-miterlimit:4;stroke-dasharray:none;stroke-dashoffset:0;stroke-opacity:0.19298245"
           d="m -1970.4384,430.38908 a 3.2756834,3.1697869 0 0 1 -3.2757,3.16972 3.2756834,3.1697869 0 0 1 -3.2757,-3.16972 3.2756834,3.1697869 0 0 1 3.2757,-3.16972 3.2756834,3.1697869 0 0 1 3.2757,3.16972"
           id="path1209-7-3-7-89"
           inkscape:connector-curvature="0"
           inkscape:export-xdpi="96"
           inkscape:export-ydpi="96" />
        <path
           style="opacity:1;fill:#5a5a5a;fill-opacity:1;stroke:none;stroke-width:0.69337237;stroke-linejoin:round;stroke-miterlimit:4;stroke-dasharray:none;stroke-dashoffset:0;stroke-opacity:0.19298245"
           d="m -1988.2813,428.87333 a 3.2756834,3.1697869 0 0 1 -3.2756,3.16972 3.2756834,3.1697869 0 0 1 -3.2757,-3.16972 3.2756834,3.1697869 0 0 1 3.2757,-3.16972 3.2756834,3.1697869 0 0 1 3.2756,3.16972"
           id="path1209-7-3-7-26"
           inkscape:connector-curvature="0"
           inkscape:export-xdpi="96"
           inkscape:export-ydpi="96" />
        <path
           style="opacity:1;fill:#5a5a5a;fill-opacity:1;stroke:none;stroke-width:1.07081938;stroke-linejoin:round;stroke-miterlimit:4;stroke-dasharray:none;stroke-dashoffset:0;stroke-opacity:0.19298245"
           d="m -1996.1937,434.13194 a 5.0588479,4.8953051 0 0 1 -5.0588,4.8952 5.0588479,4.8953051 0 0 1 -5.0588,-4.8952 5.0588479,4.8953051 0 0 1 5.0588,-4.8952 5.0588479,4.8953051 0 0 1 5.0588,4.8952"
           id="path1209-7-3-7-64"
           inkscape:connector-curvature="0"
           inkscape:export-xdpi="96"
           inkscape:export-ydpi="96" />
        <path
           style="fill:none;stroke:#5a5a5a;stroke-width:3.47813654;stroke-linecap:round;stroke-linejoin:miter;stroke-miterlimit:4;stroke-dasharray:none;stroke-opacity:1;marker-start:url(#Arrow2Sstart)"
           d="m -1866.8216,24.799333 c 23.7838,12.902604 42.2824,28.976282 58.4238,46.464309"
           id="path4635"
           inkscape:connector-curvature="0"
           sodipodi:nodetypes="cc" />
      </g>
      <path
         sodipodi:nodetypes="cc"
         inkscape:connector-curvature="0"
         id="path9051"
         d="m -1960.4533,244.66559 171.2543,22.63739"
         style="fill:none;stroke:#323232;stroke-width:2;stroke-linecap:butt;stroke-linejoin:miter;stroke-miterlimit:4;stroke-dasharray:none;stroke-opacity:1"
         inkscape:export-xdpi="96"
         inkscape:export-ydpi="96" />
      <path
         sodipodi:nodetypes="cc"
         inkscape:connector-curvature="0"
         id="path9051-2"
         d="m -1908.1536,126.28389 128.7638,122.34563"
         style="fill:none;stroke:#323232;stroke-width:2;stroke-linecap:butt;stroke-linejoin:miter;stroke-miterlimit:4;stroke-dasharray:none;stroke-opacity:1"
         inkscape:export-xdpi="96"
         inkscape:export-ydpi="96" />
      <g
         transform="translate(-1860.8724,87.710763)"
         id="g9157"
         inkscape:export-xdpi="96"
         inkscape:export-ydpi="96">
        <circle
           style="opacity:1;fill:#dcdcdc;fill-opacity:1;stroke:#000000;stroke-width:4;stroke-linecap:butt;stroke-miterlimit:4;stroke-dasharray:none;stroke-dashoffset:0;stroke-opacity:1"
           id="path9070"
           cx="1.8493142"
           cy="127.7171"
           r="66.402794"
           transform="rotate(45)" />
        <path
           style="opacity:1;fill:#5a5a5a;fill-opacity:1;stroke:none;stroke-width:4;stroke-linecap:butt;stroke-miterlimit:4;stroke-dasharray:none;stroke-dashoffset:0;stroke-opacity:1"
           d="m -54.647178,34.792167 a 66.402793,66.402793 0 0 0 -51.183132,-7.409208 66.402793,66.402793 0 0 0 -1.6526,0.496058 l -46.25644,78.160003 a 66.402793,66.402793 0 0 0 0.50369,2.40835 66.402793,66.402793 0 0 0 81.064403,47.40535 66.402793,66.402793 0 0 0 1.649067,-0.49513 l 46.259302,-78.164929 a 66.402793,66.402793 0 0 0 -0.503019,-2.404358 66.402793,66.402793 0 0 0 -29.881271,-39.996136 z"
           id="path9070-7"
           inkscape:connector-curvature="0" />
        <circle
           transform="rotate(45)"
           r="66.402794"
           cy="127.7171"
           cx="1.8493142"
           id="circle9130"
           style="opacity:1;fill:none;fill-opacity:1;stroke:#323232;stroke-width:4;stroke-linecap:butt;stroke-miterlimit:4;stroke-dasharray:none;stroke-dashoffset:0;stroke-opacity:1" />
      </g>
      <circle
         transform="rotate(45)"
         r="11.161574"
         cy="1445.5417"
         cx="-1083.6582"
         id="path9070-5"
         style="opacity:1;fill:none;fill-opacity:1;stroke:#323232;stroke-width:2.84758162;stroke-linecap:butt;stroke-miterlimit:4;stroke-dasharray:none;stroke-dashoffset:0;stroke-opacity:1"
         inkscape:export-xdpi="96"
         inkscape:export-ydpi="96" />
      <path
         inkscape:connector-curvature="0"
         id="path914-6-29-8-2-0-3-5-5-0"
         d="m -1981.5438,231.72712 a 19.194235,61.247898 30.643418 0 1 9.4969,-57.51249 19.194235,61.247898 30.643418 0 1 49.0337,-49.36834 19.194235,61.247898 30.643418 0 1 -9.4968,57.51249 19.194235,61.247898 30.643418 0 1 -49.0338,49.36834 z"
         style="opacity:1;fill:#3d9cdb;fill-opacity:1;stroke:none;stroke-width:0.94793153;stroke-linecap:butt;stroke-miterlimit:4;stroke-dasharray:0.94793125, 0.94793125;stroke-dashoffset:0;stroke-opacity:1"
         inkscape:export-xdpi="96"
         inkscape:export-ydpi="96" />
      <circle
         r="2.5"
         cy="197.51501"
         cx="-1961.9884"
         id="path9441"
         style="opacity:1;fill:#10316b;fill-opacity:1;stroke:none;stroke-width:0.76357991;stroke-linecap:butt;stroke-miterlimit:4;stroke-dasharray:none;stroke-dashoffset:0;stroke-opacity:1"
         inkscape:export-xdpi="96"
         inkscape:export-ydpi="96" />
      <circle
         r="2.5"
         cy="184.24763"
         cx="-1953.141"
         id="path9441-0"
         style="opacity:1;fill:#10316b;fill-opacity:1;stroke:none;stroke-width:0.76357991;stroke-linecap:butt;stroke-miterlimit:4;stroke-dasharray:none;stroke-dashoffset:0;stroke-opacity:1"
         inkscape:export-xdpi="96"
         inkscape:export-ydpi="96" />
      <circle
         r="2.5"
         cy="181.33723"
         cx="-1947.5847"
         id="path9441-7"
         style="opacity:1;fill:#10316b;fill-opacity:1;stroke:none;stroke-width:0.76357991;stroke-linecap:butt;stroke-miterlimit:4;stroke-dasharray:none;stroke-dashoffset:0;stroke-opacity:1"
         inkscape:export-xdpi="96"
         inkscape:export-ydpi="96" />
      <circle
         r="2.5"
         cy="188.25459"
         cx="-1971.778"
         id="path9441-8"
         style="opacity:1;fill:#10316b;fill-opacity:1;stroke:none;stroke-width:0.76357991;stroke-linecap:butt;stroke-miterlimit:4;stroke-dasharray:none;stroke-dashoffset:0;stroke-opacity:1"
         inkscape:export-xdpi="96"
         inkscape:export-ydpi="96" />
      <circle
         r="2.5"
         cy="190.06848"
         cx="-1962.1368"
         id="path9441-0-4"
         style="opacity:1;fill:#10316b;fill-opacity:1;stroke:none;stroke-width:0.76357991;stroke-linecap:butt;stroke-miterlimit:4;stroke-dasharray:none;stroke-dashoffset:0;stroke-opacity:1"
         inkscape:export-xdpi="96"
         inkscape:export-ydpi="96" />
      <circle
         r="2.5"
         cy="196.94765"
         cx="-1972.4556"
         id="path9441-7-3"
         style="opacity:1;fill:#10316b;fill-opacity:1;stroke:none;stroke-width:0.76357991;stroke-linecap:butt;stroke-miterlimit:4;stroke-dasharray:none;stroke-dashoffset:0;stroke-opacity:1"
         inkscape:export-xdpi="96"
         inkscape:export-ydpi="96" />
      <circle
         r="2.5"
         cy="167.35251"
         cx="-1959.3425"
         id="path9441-71"
         style="opacity:1;fill:#10316b;fill-opacity:1;stroke:none;stroke-width:0.76357991;stroke-linecap:butt;stroke-miterlimit:4;stroke-dasharray:none;stroke-dashoffset:0;stroke-opacity:1"
         inkscape:export-xdpi="96"
         inkscape:export-ydpi="96" />
      <circle
         r="2.5"
         cy="177.89764"
         cx="-1937.7952"
         id="path9441-0-3"
         style="opacity:1;fill:#10316b;fill-opacity:1;stroke:none;stroke-width:0.76357991;stroke-linecap:butt;stroke-miterlimit:4;stroke-dasharray:none;stroke-dashoffset:0;stroke-opacity:1"
         inkscape:export-xdpi="96"
         inkscape:export-ydpi="96" />
      <circle
         r="2.5"
         cy="169.99835"
         cx="-1936.3239"
         id="path9441-09"
         style="opacity:1;fill:#10316b;fill-opacity:1;stroke:none;stroke-width:0.76357991;stroke-linecap:butt;stroke-miterlimit:4;stroke-dasharray:none;stroke-dashoffset:0;stroke-opacity:1"
         inkscape:export-xdpi="96"
         inkscape:export-ydpi="96" />
      <circle
         r="2.5"
         cy="162.5518"
         cx="-1941.7639"
         id="path9441-0-7"
         style="opacity:1;fill:#10316b;fill-opacity:1;stroke:none;stroke-width:0.76357991;stroke-linecap:butt;stroke-miterlimit:4;stroke-dasharray:none;stroke-dashoffset:0;stroke-opacity:1"
         inkscape:export-xdpi="96"
         inkscape:export-ydpi="96" />
      <circle
         r="2.5"
         cy="159.64139"
         cx="-1936.2076"
         id="path9441-7-9"
         style="opacity:1;fill:#10316b;fill-opacity:1;stroke:none;stroke-width:0.76357991;stroke-linecap:butt;stroke-miterlimit:4;stroke-dasharray:none;stroke-dashoffset:0;stroke-opacity:1"
         inkscape:export-xdpi="96"
         inkscape:export-ydpi="96" />
      <circle
         r="2.5"
         cy="172.37959"
         cx="-1944.2614"
         id="path9441-9"
         style="opacity:1;fill:#10316b;fill-opacity:1;stroke:none;stroke-width:0.76357991;stroke-linecap:butt;stroke-miterlimit:4;stroke-dasharray:none;stroke-dashoffset:0;stroke-opacity:1"
         inkscape:export-xdpi="96"
         inkscape:export-ydpi="96" />
      <circle
         r="2.5"
         cy="188.48097"
         cx="-1946.791"
         id="path9441-0-32"
         style="opacity:1;fill:#10316b;fill-opacity:1;stroke:none;stroke-width:0.76357991;stroke-linecap:butt;stroke-miterlimit:4;stroke-dasharray:none;stroke-dashoffset:0;stroke-opacity:1"
         inkscape:export-xdpi="96"
         inkscape:export-ydpi="96" />
      <circle
         r="2.5"
         cy="194.3018"
         cx="-1952.3472"
         id="path9441-7-4"
         style="opacity:1;fill:#10316b;fill-opacity:1;stroke:none;stroke-width:0.76357991;stroke-linecap:butt;stroke-miterlimit:4;stroke-dasharray:none;stroke-dashoffset:0;stroke-opacity:1"
         inkscape:export-xdpi="96"
         inkscape:export-ydpi="96" />
      <circle
         r="2.5"
         cy="183.22751"
         cx="-1961.7239"
         id="path9441-3"
         style="opacity:1;fill:#10316b;fill-opacity:1;stroke:none;stroke-width:0.76357991;stroke-linecap:butt;stroke-miterlimit:4;stroke-dasharray:none;stroke-dashoffset:0;stroke-opacity:1"
         inkscape:export-xdpi="96"
         inkscape:export-ydpi="96" />
      <circle
         r="2.5"
         cy="174.72266"
         cx="-1965.8409"
         id="path9441-0-71"
         style="opacity:1;fill:#10316b;fill-opacity:1;stroke:none;stroke-width:0.76357991;stroke-linecap:butt;stroke-miterlimit:4;stroke-dasharray:none;stroke-dashoffset:0;stroke-opacity:1"
         inkscape:export-xdpi="96"
         inkscape:export-ydpi="96" />
      <circle
         r="2.5"
         cy="165.72682"
         cx="-1952.0826"
         id="path9441-7-2"
         style="opacity:1;fill:#10316b;fill-opacity:1;stroke:none;stroke-width:0.76357991;stroke-linecap:butt;stroke-miterlimit:4;stroke-dasharray:none;stroke-dashoffset:0;stroke-opacity:1"
         inkscape:export-xdpi="96"
         inkscape:export-ydpi="96" />
      <circle
         r="2.5"
         cy="173.8157"
         cx="-1953.5378"
         id="path9441-0-7-2"
         style="opacity:1;fill:#10316b;fill-opacity:1;stroke:none;stroke-width:0.76357991;stroke-linecap:butt;stroke-miterlimit:4;stroke-dasharray:none;stroke-dashoffset:0;stroke-opacity:1"
         inkscape:export-xdpi="96"
         inkscape:export-ydpi="96" />
      <circle
         r="2.5"
         cy="183.86987"
         cx="-1941.3669"
         id="path9441-0-7-0"
         style="opacity:1;fill:#10316b;fill-opacity:1;stroke:none;stroke-width:0.76357991;stroke-linecap:butt;stroke-miterlimit:4;stroke-dasharray:none;stroke-dashoffset:0;stroke-opacity:1"
         inkscape:export-xdpi="96"
         inkscape:export-ydpi="96" />
      <circle
         r="2.5"
         cy="156.88237"
         cx="-1949.8336"
         id="path9441-71-2"
         style="opacity:1;fill:#10316b;fill-opacity:1;stroke:none;stroke-width:0.76357991;stroke-linecap:butt;stroke-miterlimit:4;stroke-dasharray:none;stroke-dashoffset:0;stroke-opacity:1"
         inkscape:export-xdpi="96"
         inkscape:export-ydpi="96" />
      <circle
         r="2.5"
         cy="153.70737"
         cx="-1942.1608"
         id="path9441-71-1"
         style="opacity:1;fill:#10316b;fill-opacity:1;stroke:none;stroke-width:0.76357991;stroke-linecap:butt;stroke-miterlimit:4;stroke-dasharray:none;stroke-dashoffset:0;stroke-opacity:1"
         inkscape:export-xdpi="96"
         inkscape:export-ydpi="96" />
      <circle
         r="2.5"
         cy="143.38863"
         cx="-1940.8378"
         id="path9441-71-7"
         style="opacity:1;fill:#10316b;fill-opacity:1;stroke:none;stroke-width:0.76357991;stroke-linecap:butt;stroke-miterlimit:4;stroke-dasharray:none;stroke-dashoffset:0;stroke-opacity:1"
         inkscape:export-xdpi="96"
         inkscape:export-ydpi="96" />
      <circle
         r="2.5"
         cy="136.50945"
         cx="-1932.6357"
         id="path9441-71-5"
         style="opacity:1;fill:#10316b;fill-opacity:1;stroke:none;stroke-width:0.76357991;stroke-linecap:butt;stroke-miterlimit:4;stroke-dasharray:none;stroke-dashoffset:0;stroke-opacity:1"
         inkscape:export-xdpi="96"
         inkscape:export-ydpi="96" />
      <circle
         r="2.5"
         cy="146.56361"
         cx="-1934.2233"
         id="path9441-71-17"
         style="opacity:1;fill:#10316b;fill-opacity:1;stroke:none;stroke-width:0.76357991;stroke-linecap:butt;stroke-miterlimit:4;stroke-dasharray:none;stroke-dashoffset:0;stroke-opacity:1"
         inkscape:export-xdpi="96"
         inkscape:export-ydpi="96" />
      <circle
         r="2.5"
         cy="165.8782"
         cx="-1929.99"
         id="path9441-71-4"
         style="opacity:1;fill:#10316b;fill-opacity:1;stroke:none;stroke-width:0.76357991;stroke-linecap:butt;stroke-miterlimit:4;stroke-dasharray:none;stroke-dashoffset:0;stroke-opacity:1"
         inkscape:export-xdpi="96"
         inkscape:export-ydpi="96" />
      <circle
         r="2.5"
         cy="158.20529"
         cx="-1930.2545"
         id="path9441-71-171"
         style="opacity:1;fill:#10316b;fill-opacity:1;stroke:none;stroke-width:0.76357991;stroke-linecap:butt;stroke-miterlimit:4;stroke-dasharray:none;stroke-dashoffset:0;stroke-opacity:1"
         inkscape:export-xdpi="96"
         inkscape:export-ydpi="96" />
      <circle
         r="2.5"
         cy="148.4157"
         cx="-1926.0212"
         id="path9441-71-11"
         style="opacity:1;fill:#10316b;fill-opacity:1;stroke:none;stroke-width:0.76357991;stroke-linecap:butt;stroke-miterlimit:4;stroke-dasharray:none;stroke-dashoffset:0;stroke-opacity:1"
         inkscape:export-xdpi="96"
         inkscape:export-ydpi="96" />
      <circle
         r="2.5"
         cy="133.33444"
         cx="-1924.4337"
         id="path9441-71-70"
         style="opacity:1;fill:#10316b;fill-opacity:1;stroke:none;stroke-width:0.76357991;stroke-linecap:butt;stroke-miterlimit:4;stroke-dasharray:none;stroke-dashoffset:0;stroke-opacity:1"
         inkscape:export-xdpi="96"
         inkscape:export-ydpi="96" />
      <circle
         r="2.5"
         cy="142.59486"
         cx="-1928.9316"
         id="path9441-71-40"
         style="opacity:1;fill:#10316b;fill-opacity:1;stroke:none;stroke-width:0.76357991;stroke-linecap:butt;stroke-miterlimit:4;stroke-dasharray:none;stroke-dashoffset:0;stroke-opacity:1"
         inkscape:export-xdpi="96"
         inkscape:export-ydpi="96" />
      <circle
         r="2.5"
         cy="165.08446"
         cx="-1946.6587"
         id="path9441-71-8"
         style="opacity:1;fill:#10316b;fill-opacity:1;stroke:none;stroke-width:0.76357991;stroke-linecap:butt;stroke-miterlimit:4;stroke-dasharray:none;stroke-dashoffset:0;stroke-opacity:1"
         inkscape:export-xdpi="96"
         inkscape:export-ydpi="96" />
      <circle
         r="2.5"
         cy="201.59695"
         cx="-1957.2419"
         id="path9441-71-51"
         style="opacity:1;fill:#10316b;fill-opacity:1;stroke:none;stroke-width:0.76357991;stroke-linecap:butt;stroke-miterlimit:4;stroke-dasharray:none;stroke-dashoffset:0;stroke-opacity:1"
         inkscape:export-xdpi="96"
         inkscape:export-ydpi="96" />
      <circle
         r="2.5"
         cy="208.47612"
         cx="-1965.1794"
         id="path9441-71-6"
         style="opacity:1;fill:#10316b;fill-opacity:1;stroke:none;stroke-width:0.76357991;stroke-linecap:butt;stroke-miterlimit:4;stroke-dasharray:none;stroke-dashoffset:0;stroke-opacity:1"
         inkscape:export-xdpi="96"
         inkscape:export-ydpi="96" />
      <circle
         r="2.5"
         cy="225.14487"
         cx="-1980.2607"
         id="path9441-71-62"
         style="opacity:1;fill:#10316b;fill-opacity:1;stroke:none;stroke-width:0.76357991;stroke-linecap:butt;stroke-miterlimit:4;stroke-dasharray:none;stroke-dashoffset:0;stroke-opacity:1"
         inkscape:export-xdpi="96"
         inkscape:export-ydpi="96" />
      <circle
         r="2.5"
         cy="214.56154"
         cx="-1979.7316"
         id="path9441-71-19"
         style="opacity:1;fill:#10316b;fill-opacity:1;stroke:none;stroke-width:0.76357991;stroke-linecap:butt;stroke-miterlimit:4;stroke-dasharray:none;stroke-dashoffset:0;stroke-opacity:1"
         inkscape:export-xdpi="96"
         inkscape:export-ydpi="96" />
      <circle
         r="2.5"
         cy="212.70946"
         cx="-1972.8524"
         id="path9441-71-64"
         style="opacity:1;fill:#10316b;fill-opacity:1;stroke:none;stroke-width:0.76357991;stroke-linecap:butt;stroke-miterlimit:4;stroke-dasharray:none;stroke-dashoffset:0;stroke-opacity:1"
         inkscape:export-xdpi="96"
         inkscape:export-ydpi="96" />
      <circle
         r="2.5"
         cy="221.17612"
         cx="-1972.5879"
         id="path9441-71-80"
         style="opacity:1;fill:#10316b;fill-opacity:1;stroke:none;stroke-width:0.76357991;stroke-linecap:butt;stroke-miterlimit:4;stroke-dasharray:none;stroke-dashoffset:0;stroke-opacity:1"
         inkscape:export-xdpi="96"
         inkscape:export-ydpi="96" />
      <circle
         r="2.5"
         cy="203.18446"
         cx="-1978.144"
         id="path9441-71-81"
         style="opacity:1;fill:#10316b;fill-opacity:1;stroke:none;stroke-width:0.76357991;stroke-linecap:butt;stroke-miterlimit:4;stroke-dasharray:none;stroke-dashoffset:0;stroke-opacity:1"
         inkscape:export-xdpi="96"
         inkscape:export-ydpi="96" />
      <circle
         r="2.5"
         cy="215.61986"
         cx="-1965.1794"
         id="path9441-71-0"
         style="opacity:1;fill:#10316b;fill-opacity:1;stroke:none;stroke-width:0.76357991;stroke-linecap:butt;stroke-miterlimit:4;stroke-dasharray:none;stroke-dashoffset:0;stroke-opacity:1"
         inkscape:export-xdpi="96"
         inkscape:export-ydpi="96" />
      <circle
         r="2.5"
         cy="200.00946"
         cx="-1967.0316"
         id="path9441-71-22"
         style="opacity:1;fill:#10316b;fill-opacity:1;stroke:none;stroke-width:0.76357991;stroke-linecap:butt;stroke-miterlimit:4;stroke-dasharray:none;stroke-dashoffset:0;stroke-opacity:1"
         inkscape:export-xdpi="96"
         inkscape:export-ydpi="96" />
      <circle
         r="2.5"
         cy="147.22998"
         cx="-1946.7753"
         id="path9441-0-7-2-9"
         style="opacity:1;fill:#10316b;fill-opacity:1;stroke:none;stroke-width:0.76357991;stroke-linecap:butt;stroke-miterlimit:4;stroke-dasharray:none;stroke-dashoffset:0;stroke-opacity:1"
         inkscape:export-xdpi="96"
         inkscape:export-ydpi="96" />
      <circle
         r="2.5"
         cy="152.84265"
         cx="-1934.4274"
         id="path9441-0-7-2-7"
         style="opacity:1;fill:#10316b;fill-opacity:1;stroke:none;stroke-width:0.76357991;stroke-linecap:butt;stroke-miterlimit:4;stroke-dasharray:none;stroke-dashoffset:0;stroke-opacity:1"
         inkscape:export-xdpi="96"
         inkscape:export-ydpi="96" />
      <flowRoot
         transform="matrix(0.26458333,0,0,0.26458333,-2183.7591,-60.530125)"
         style="font-style:normal;font-weight:normal;font-size:16px;line-height:0.25;font-family:sans-serif;letter-spacing:0px;word-spacing:0px;opacity:1;fill:#6ab188;fill-opacity:1;stroke:none"
         id="flowRoot5425-3-3-8-4"
         xml:space="preserve"
         inkscape:export-xdpi="96"
         inkscape:export-ydpi="96"><flowRegion
           style="fill:#6ab188;fill-opacity:1"
           id="flowRegion5427-3-9-9-6"><rect
             style="fill:#6ab188;fill-opacity:1"
             y="551.17743"
             x="738.21948"
             height="187.58789"
             width="569.25391"
             id="rect5429-3-2-15-3" /></flowRegion><flowPara
           style="font-style:normal;font-variant:normal;font-weight:bold;font-stretch:normal;font-size:86px;line-height:1.25;font-family:'Fira Sans';-inkscape-font-specification:'Fira Sans Bold';font-variant-ligatures:normal;font-variant-caps:normal;font-variant-numeric:normal;font-feature-settings:normal;text-align:start;letter-spacing:0px;writing-mode:lr-tb;text-anchor:start;opacity:0.63636361;fill:#6ab188;fill-opacity:1"
           id="flowPara5431-7-8-4-7">Protons</flowPara></flowRoot>      <flowRoot
         transform="matrix(0.26458333,0,0,0.26458333,-2226.0043,-82.311891)"
         style="font-style:normal;font-weight:normal;font-size:16px;line-height:0.25;font-family:sans-serif;letter-spacing:0px;word-spacing:0px;opacity:1;fill:#6ab188;fill-opacity:1;stroke:none"
         id="flowRoot5425-3-3-8-4-7"
         xml:space="preserve"
         inkscape:export-xdpi="96"
         inkscape:export-ydpi="96"><flowRegion
           style="fill:#6ab188;fill-opacity:1"
           id="flowRegion5427-3-9-9-6-4"><rect
             style="fill:#6ab188;fill-opacity:1"
             y="551.17743"
             x="738.21948"
             height="130.50462"
             width="914.54028"
             id="rect5429-3-2-15-3-9" /></flowRegion><flowPara
           style="font-style:normal;font-variant:normal;font-weight:bold;font-stretch:normal;font-size:86px;line-height:1.25;font-family:'Fira Sans';-inkscape-font-specification:'Fira Sans Bold';font-variant-ligatures:normal;font-variant-caps:normal;font-variant-numeric:normal;font-feature-settings:normal;text-align:start;letter-spacing:0px;writing-mode:lr-tb;text-anchor:start;opacity:0.63636361;fill:#6ab188;fill-opacity:1"
           id="flowPara5431-7-8-4-7-1">115.000.000.000</flowPara></flowRoot>      <flowRoot
         transform="matrix(0.26458333,0,0,0.26458333,-1998.0077,189.36833)"
         style="font-style:normal;font-weight:normal;font-size:16px;line-height:0.25;font-family:sans-serif;letter-spacing:0px;word-spacing:0px;opacity:1;fill:#6ab188;fill-opacity:1;stroke:none"
         id="flowRoot5425-3"
         xml:space="preserve"
         inkscape:export-xdpi="96"
         inkscape:export-ydpi="96"><flowRegion
           style="fill:#6ab188;fill-opacity:1"
           id="flowRegion5427-3"><rect
             style="fill:#6ab188;fill-opacity:1"
             y="551.17743"
             x="738.21948"
             height="220.53406"
             width="597.10962"
             id="rect5429-3" /></flowRegion><flowPara
           style="font-style:normal;font-variant:normal;font-weight:bold;font-stretch:normal;font-size:120px;line-height:1.25;font-family:'Fira Sans';-inkscape-font-specification:'Fira Sans Bold';font-variant-ligatures:normal;font-variant-caps:normal;font-variant-numeric:normal;font-feature-settings:normal;text-align:start;writing-mode:lr-tb;text-anchor:start;opacity:0.63636361;fill:#6ab188;fill-opacity:1"
           id="flowPara5431-7">LHCb</flowPara></flowRoot>      <flowRoot
         transform="matrix(0.26458333,0,0,0.26458333,-2209.5996,260.29823)"
         style="font-style:normal;font-weight:normal;font-size:16px;line-height:0.25;font-family:sans-serif;letter-spacing:0px;word-spacing:0px;opacity:1;fill:#6ab188;fill-opacity:1;stroke:none"
         id="flowRoot5425-3-5"
         xml:space="preserve"
         inkscape:export-xdpi="96"
         inkscape:export-ydpi="96"><flowRegion
           style="fill:#6ab188;fill-opacity:1"
           id="flowRegion5427-3-6"><rect
             style="fill:#6ab188;fill-opacity:1"
             y="551.17743"
             x="738.21948"
             height="220.53406"
             width="597.10962"
             id="rect5429-3-9" /></flowRegion><flowPara
           style="font-style:normal;font-variant:normal;font-weight:bold;font-stretch:normal;font-size:120px;line-height:1.25;font-family:'Fira Sans';-inkscape-font-specification:'Fira Sans Bold';font-variant-ligatures:normal;font-variant-caps:normal;font-variant-numeric:normal;font-feature-settings:normal;text-align:start;writing-mode:lr-tb;text-anchor:start;opacity:0.63636361;fill:#6ab188;fill-opacity:1"
           id="flowPara5431-7-3">ATLAS</flowPara></flowRoot>      <flowRoot
         transform="matrix(0.26458333,0,0,0.26458333,-2426.4127,188.83881)"
         style="font-style:normal;font-weight:normal;font-size:16px;line-height:0.25;font-family:sans-serif;letter-spacing:0px;word-spacing:0px;opacity:1;fill:#6ab188;fill-opacity:1;stroke:none"
         id="flowRoot5425-3-5-7"
         xml:space="preserve"
         inkscape:export-xdpi="96"
         inkscape:export-ydpi="96"><flowRegion
           style="fill:#6ab188;fill-opacity:1"
           id="flowRegion5427-3-6-4"><rect
             style="fill:#6ab188;fill-opacity:1"
             y="551.17743"
             x="738.21948"
             height="220.53406"
             width="597.10962"
             id="rect5429-3-9-5" /></flowRegion><flowPara
           style="font-style:normal;font-variant:normal;font-weight:bold;font-stretch:normal;font-size:120px;line-height:1.25;font-family:'Fira Sans';-inkscape-font-specification:'Fira Sans Bold';font-variant-ligatures:normal;font-variant-caps:normal;font-variant-numeric:normal;font-feature-settings:normal;text-align:start;writing-mode:lr-tb;text-anchor:start;opacity:0.63636361;fill:#6ab188;fill-opacity:1"
           id="flowPara5431-7-3-2">ALICE</flowPara></flowRoot>      <flowRoot
         transform="matrix(0.26458333,0,0,0.26458333,-2200.7455,-283.47882)"
         style="font-style:normal;font-weight:normal;font-size:16px;line-height:0.25;font-family:sans-serif;letter-spacing:0px;word-spacing:0px;opacity:1;fill:#6ab188;fill-opacity:1;stroke:none"
         id="flowRoot5425-3-5-5"
         xml:space="preserve"
         inkscape:export-xdpi="96"
         inkscape:export-ydpi="96"><flowRegion
           style="fill:#6ab188;fill-opacity:1"
           id="flowRegion5427-3-6-47"><rect
             style="fill:#6ab188;fill-opacity:1"
             y="551.17743"
             x="738.21948"
             height="220.53406"
             width="597.10962"
             id="rect5429-3-9-4" /></flowRegion><flowPara
           style="font-style:normal;font-variant:normal;font-weight:bold;font-stretch:normal;font-size:120px;line-height:1.25;font-family:'Fira Sans';-inkscape-font-specification:'Fira Sans Bold';font-variant-ligatures:normal;font-variant-caps:normal;font-variant-numeric:normal;font-feature-settings:normal;text-align:start;writing-mode:lr-tb;text-anchor:start;opacity:0.63636361;fill:#6ab188;fill-opacity:1"
           id="flowPara5431-7-3-4">CMS</flowPara></flowRoot>      <path
         style="fill:none;stroke:#5a5a5a;stroke-width:3.99999976;stroke-linecap:round;stroke-linejoin:miter;stroke-miterlimit:4;stroke-dasharray:none;stroke-opacity:1;marker-start:url(#Arrow2Sstart-3)"
         d="m -2110.0624,-81.124604 c -27.3523,14.838525 -48.6265,33.323915 -67.1897,53.435862"
         id="path4635-7"
         inkscape:connector-curvature="0"
         sodipodi:nodetypes="cc" />
    </g>
  </g>
</svg>
